<svg width="3100" height="4075" viewBox="0 0 3100 4075" fill="none" xmlns="http://www.w3.org/2000/svg">
<path d="M2358.82 1775.24C2590.01 1640.95 2821.2 1506.66 3090.89 1350C3090.89 1785.25 3103.42 2193.25 3099.09 2597.79C3090.89 3363.39 3064.9 3277.9 2684.83 3535.27C2350.22 3761.85 2177.03 3890.73 1800 4075C1782.87 3536.1 1487.68 2994.54 1500.78 2477.61C1502.99 2390.24 1532.5 2219.37 1661.05 2184.82C1857.96 2038.07 2063.07 1954.86 2285.73 1823.97C2319.77 1808.5 2339.29 1791.87 2358.82 1775.24Z" fill="#5110A3"/>
<path d="M800 3500C538.613 3356.42 600 3375 113.424 3007.05C52.2716 2968.82 7.78483 2856.65 6.46323 2777.62C-2.58637 2236.58 -1.71262 1695.26 6.46724 1154.19C7.52809 1084.01 49.8678 983.657 105.188 949.926C573.288 664.506 1048.18 390.16 1523.45 116.699C1560.63 95.3113 1662.78 5.75945 1725 0C1740.1 302.091 1704.97 583.833 1725 900C1505.43 1067.78 1011.14 1317 800 1475C717.949 1536.4 702.945 1673.59 700 1775C700 2475 801.452 2936.01 800 3500Z" fill="white"/>
<path d="M800 3500C538.613 3356.42 600 3375 113.424 3007.05C52.2716 2968.82 7.78483 2856.65 6.46323 2777.62C-2.58637 2236.58 -1.71262 1695.26 6.46724 1154.19C7.52809 1084.01 49.8678 983.657 105.188 949.926C573.288 664.506 1048.18 390.16 1523.45 116.699C1560.63 95.3113 1662.78 5.75945 1725 0C1740.1 302.091 1704.97 583.833 1725 900C1505.43 1067.78 1011.14 1317 800 1475C717.949 1536.4 702.945 1673.59 700 1775C700 2475 801.452 2936.01 800 3500Z" fill="white"/>
<path d="M750 3525C500 3375 500 3400 113.424 3007.05C52.2716 2968.82 7.78483 2856.65 6.46323 2777.62C-2.58637 2236.58 -1.71262 1695.26 6.46724 1154.19C7.52809 1084.01 49.8678 983.657 105.188 949.926C573.288 664.506 1048.18 390.16 1523.45 116.699C1560.63 95.3113 1662.78 5.75945 1725 0C1740.1 302.091 1704.97 583.833 1725 900C1505.43 1067.78 1011.14 1317 800 1475C717.949 1536.4 702.945 1673.59 700 1775C700 2475 751.452 2961.01 750 3525Z" fill="#E3BFFF"/>
<path d="M1275 3825C1000 3700 765.888 3539.9 513.424 3382.05C452.272 3343.82 407.785 3206.65 406.463 3127.62C397.414 2586.58 398.288 2045.26 406.467 1504.19C407.528 1434.01 449.868 1333.66 505.188 1299.93C973.288 1014.51 1448.18 740.16 1923.45 466.699C1960.63 445.311 2062.78 355.759 2125 350C2140.1 652.091 2104.97 1058.83 2125 1375C1905.43 1542.78 1673.66 1650.23 1462.52 1808.23C1380.47 1869.64 1308.3 2000.59 1305.35 2102C1288.99 2665.56 1276.45 3261.01 1275 3825Z" fill="#BB67FD"/>
<path d="M1009.46 3691.37C1000.05 3114.11 993.74 2549.89 1010.1 1986.33C1013.05 1884.92 1085.22 1753.97 1167.27 1692.56C1378.41 1534.56 1613.02 1407.92 1848.12 1256.32C1953.34 1186.14 2048.68 1128.39 2172.01 1052.89C2322.32 967.376 2493.43 824.614 2628.12 750C2646.58 804.654 2612.95 924.552 2628.12 969.449C2625.17 1188.65 2622.21 1407.84 2618.54 1663.28C2614.83 1719.35 2611.84 1739.18 2608.86 1759.02C2393.74 1897.16 2170.94 2025.14 1967.43 2178.66C1890.52 2236.68 1814.88 2352.65 1812.6 2444.05C1799.05 2984.86 1799.41 3511.3 1800 4075C1537.3 3961.59 1282.73 3840.58 1009.46 3691.37Z" fill="#821ED0"/>
<path d="M2358.82 1775.24C2590.01 1640.95 2821.2 1506.66 3090.89 1350C3090.89 1785.25 3103.42 2193.25 3099.09 2597.79C3090.89 3363.39 3064.9 3277.9 2684.83 3535.27C2350.22 3761.85 2177.03 3890.73 1800 4075C1782.87 3536.1 1487.68 2994.54 1500.78 2477.61C1502.99 2390.24 1532.5 2219.37 1661.05 2184.82C1857.96 2038.07 2063.07 1954.86 2285.73 1823.97C2319.77 1808.5 2339.29 1791.87 2358.82 1775.24Z" fill="#C5C5C5"/>
<path d="M800 3500C538.613 3356.42 600 3375 113.424 3007.05C52.2716 2968.82 7.78483 2856.65 6.46323 2777.62C-2.58637 2236.58 -1.71262 1695.26 6.46724 1154.19C7.52809 1084.01 49.8678 983.657 105.188 949.926C573.288 664.506 1048.18 390.16 1523.45 116.699C1560.63 95.3113 1662.78 5.75945 1725 0C1740.1 302.091 1704.97 583.833 1725 900C1505.43 1067.78 1011.14 1317 800 1475C717.949 1536.4 702.945 1673.59 700 1775C700 2475 801.452 2936.01 800 3500Z" fill="white"/>
<path d="M800 3500C538.613 3356.42 600 3375 113.424 3007.05C52.2716 2968.82 7.78483 2856.65 6.46323 2777.62C-2.58637 2236.58 -1.71262 1695.26 6.46724 1154.19C7.52809 1084.01 49.8678 983.657 105.188 949.926C573.288 664.506 1048.18 390.16 1523.45 116.699C1560.63 95.3113 1662.78 5.75945 1725 0C1740.1 302.091 1704.97 583.833 1725 900C1505.43 1067.78 1011.14 1317 800 1475C717.949 1536.4 702.945 1673.59 700 1775C700 2475 801.452 2936.01 800 3500Z" fill="white"/>
<path d="M750 3525C500 3375 500 3400 113.424 3007.05C52.2716 2968.82 7.78483 2856.65 6.46323 2777.62C-2.58637 2236.58 -1.71262 1695.26 6.46724 1154.19C7.52809 1084.01 49.8678 983.657 105.188 949.926C573.288 664.506 1048.18 390.16 1523.45 116.699C1560.63 95.3113 1662.78 5.75945 1725 0C1740.1 302.091 1704.97 583.833 1725 900C1505.43 1067.78 1011.14 1317 800 1475C717.949 1536.4 702.945 1673.59 700 1775C700 2475 751.452 2961.01 750 3525Z" fill="white"/>
<path d="M1275 3825C1000 3700 765.888 3539.9 513.424 3382.05C452.272 3343.82 407.785 3206.65 406.463 3127.62C397.414 2586.58 398.288 2045.26 406.467 1504.19C407.528 1434.01 449.868 1333.66 505.188 1299.93C973.288 1014.51 1448.18 740.16 1923.45 466.699C1960.63 445.311 2062.78 355.759 2125 350C2140.1 652.091 2104.97 1058.83 2125 1375C1905.43 1542.78 1673.66 1650.23 1462.52 1808.23C1380.47 1869.64 1308.3 2000.59 1305.35 2102C1288.99 2665.56 1276.45 3261.01 1275 3825Z" fill="#C5C5C5"/>
<path d="M1009.46 3691.37C1000.05 3114.11 993.74 2549.89 1010.1 1986.33C1013.05 1884.92 1085.22 1753.97 1167.27 1692.56C1378.41 1534.56 1613.02 1407.92 1848.12 1256.32C1953.34 1186.14 2048.68 1128.39 2172.01 1052.89C2322.32 967.376 2493.43 824.614 2628.12 750C2646.58 804.654 2612.95 924.552 2628.12 969.449C2625.17 1188.65 2622.21 1407.84 2618.54 1663.28C2614.83 1719.35 2611.84 1739.18 2608.86 1759.02C2393.74 1897.16 2170.94 2025.14 1967.43 2178.66C1890.52 2236.68 1814.88 2352.65 1812.6 2444.05C1799.05 2984.86 1799.41 3511.3 1800 4075C1537.3 3961.59 1282.73 3840.58 1009.46 3691.37Z" fill="white"/>
</svg>
